<svg xmlns="http://www.w3.org/2000/svg" viewBox="0 0 64 64">
  <defs>
    <linearGradient id="bg" x1="0" y1="0" x2="0" y2="1">
      <stop offset="0" stop-color="#0284c7"/>
      <stop offset="1" stop-color="#082f49"/>
    </linearGradient>
  </defs>
  <rect x="0" y="0" width="64" height="64" rx="14" fill="url(#bg)"/>
  <circle cx="46" cy="18" r="9" fill="#e2f0fa"/>
  <circle cx="41" cy="15" r="9.2" fill="#0284c7"/>
  <path d="M0 40 C 8 34, 16 34, 24 40 S 40 46, 48 40 S 60 36, 64 38 V 64 H 0 Z" fill="#ffffff" fill-opacity="0.92"/>
  <path d="M0 48 C 8 43, 16 43, 24 48 S 40 53, 48 48 S 60 45, 64 47 V 64 H 0 Z" fill="#bfe6fa" fill-opacity="0.75"/>
  <path d="M0 55 C 8 51, 16 51, 24 55 S 40 59, 48 55 S 60 52, 64 54 V 64 H 0 Z" fill="#7dd3fc" fill-opacity="0.55"/>
</svg>
